<mxfile host="app.diagrams.net" modified="2022-05-30T05:59:31.374Z" agent="5.0 (Macintosh; Intel Mac OS X 10_15_7) AppleWebKit/537.36 (KHTML, like Gecko) Chrome/101.0.4951.64 Safari/537.36" etag="uFHrSrZy-PYIOua2OVKK" version="18.0.1" type="github">
  <diagram id="kgpKYQtTHZ0yAKxKKP6v" name="Page-1">
    <mxGraphModel dx="955" dy="656" grid="0" gridSize="10" guides="1" tooltips="1" connect="1" arrows="1" fold="1" page="1" pageScale="1" pageWidth="1654" pageHeight="2336" math="0" shadow="0">
      <root>
        <mxCell id="0" />
        <mxCell id="1" parent="0" />
        <mxCell id="grcQj5qJuMnv0zaokqMz-2" value="前端" style="shape=umlLifeline;perimeter=lifelinePerimeter;container=1;collapsible=0;recursiveResize=0;rounded=0;shadow=0;strokeWidth=1;" vertex="1" parent="1">
          <mxGeometry x="229" y="1580" width="100" height="840" as="geometry" />
        </mxCell>
        <mxCell id="grcQj5qJuMnv0zaokqMz-6" value="" style="points=[];perimeter=orthogonalPerimeter;rounded=0;shadow=0;strokeWidth=1;" vertex="1" parent="grcQj5qJuMnv0zaokqMz-2">
          <mxGeometry x="45" y="98" width="10" height="260" as="geometry" />
        </mxCell>
        <mxCell id="grcQj5qJuMnv0zaokqMz-7" value="" style="verticalAlign=bottom;startArrow=oval;endArrow=block;startSize=8;shadow=0;strokeWidth=1;" edge="1" parent="grcQj5qJuMnv0zaokqMz-2">
          <mxGeometry relative="1" as="geometry">
            <mxPoint x="-77" y="127.99999999999989" as="sourcePoint" />
            <mxPoint x="45" y="127.99999999999989" as="targetPoint" />
          </mxGeometry>
        </mxCell>
        <mxCell id="grcQj5qJuMnv0zaokqMz-8" value="" style="verticalAlign=bottom;startArrow=oval;endArrow=block;startSize=8;shadow=0;strokeWidth=1;" edge="1" parent="grcQj5qJuMnv0zaokqMz-2">
          <mxGeometry relative="1" as="geometry">
            <mxPoint x="-77" y="198" as="sourcePoint" />
            <mxPoint x="45" y="198" as="targetPoint" />
          </mxGeometry>
        </mxCell>
        <mxCell id="grcQj5qJuMnv0zaokqMz-10" value="后端" style="shape=umlLifeline;perimeter=lifelinePerimeter;container=1;collapsible=0;recursiveResize=0;rounded=0;shadow=0;strokeWidth=1;" vertex="1" parent="1">
          <mxGeometry x="444" y="1580" width="100" height="840" as="geometry" />
        </mxCell>
        <mxCell id="grcQj5qJuMnv0zaokqMz-13" value="" style="points=[];perimeter=orthogonalPerimeter;rounded=0;shadow=0;strokeWidth=1;" vertex="1" parent="grcQj5qJuMnv0zaokqMz-10">
          <mxGeometry x="45" y="101" width="10" height="270" as="geometry" />
        </mxCell>
        <mxCell id="grcQj5qJuMnv0zaokqMz-14" value="" style="points=[];perimeter=orthogonalPerimeter;rounded=0;shadow=0;strokeWidth=1;" vertex="1" parent="grcQj5qJuMnv0zaokqMz-10">
          <mxGeometry x="-170" y="716" width="10" height="137" as="geometry" />
        </mxCell>
        <mxCell id="grcQj5qJuMnv0zaokqMz-15" value="" style="verticalAlign=bottom;startArrow=oval;endArrow=block;startSize=8;shadow=0;strokeWidth=1;" edge="1" parent="grcQj5qJuMnv0zaokqMz-10">
          <mxGeometry relative="1" as="geometry">
            <mxPoint x="-292" y="746" as="sourcePoint" />
            <mxPoint x="-170" y="746" as="targetPoint" />
          </mxGeometry>
        </mxCell>
        <mxCell id="grcQj5qJuMnv0zaokqMz-16" value="" style="points=[];perimeter=orthogonalPerimeter;rounded=0;shadow=0;strokeWidth=1;" vertex="1" parent="grcQj5qJuMnv0zaokqMz-10">
          <mxGeometry x="45" y="716" width="10" height="137" as="geometry" />
        </mxCell>
        <mxCell id="grcQj5qJuMnv0zaokqMz-17" value="文本+表名" style="html=1;verticalAlign=bottom;endArrow=block;rounded=0;curved=1;entryX=-0.211;entryY=0.288;entryDx=0;entryDy=0;entryPerimeter=0;exitX=1.049;exitY=0.286;exitDx=0;exitDy=0;exitPerimeter=0;" edge="1" parent="grcQj5qJuMnv0zaokqMz-10" source="grcQj5qJuMnv0zaokqMz-14" target="grcQj5qJuMnv0zaokqMz-16">
          <mxGeometry width="80" relative="1" as="geometry">
            <mxPoint x="-152" y="756" as="sourcePoint" />
            <mxPoint x="-82" y="756" as="targetPoint" />
          </mxGeometry>
        </mxCell>
        <mxCell id="grcQj5qJuMnv0zaokqMz-21" value="引擎端" style="shape=umlLifeline;perimeter=lifelinePerimeter;container=1;collapsible=0;recursiveResize=0;rounded=0;shadow=0;strokeWidth=1;" vertex="1" parent="1">
          <mxGeometry x="699" y="1580" width="100" height="840" as="geometry" />
        </mxCell>
        <mxCell id="grcQj5qJuMnv0zaokqMz-27" value="" style="points=[];perimeter=orthogonalPerimeter;rounded=0;shadow=0;strokeWidth=1;" vertex="1" parent="grcQj5qJuMnv0zaokqMz-21">
          <mxGeometry x="45" y="98" width="10" height="250" as="geometry" />
        </mxCell>
        <mxCell id="grcQj5qJuMnv0zaokqMz-44" value="kafka" style="shape=umlLifeline;perimeter=lifelinePerimeter;container=1;collapsible=0;recursiveResize=0;rounded=0;shadow=0;strokeWidth=1;" vertex="1" parent="1">
          <mxGeometry x="942" y="1580" width="100" height="770" as="geometry" />
        </mxCell>
        <mxCell id="grcQj5qJuMnv0zaokqMz-45" value="" style="points=[];perimeter=orthogonalPerimeter;rounded=0;shadow=0;strokeWidth=1;" vertex="1" parent="grcQj5qJuMnv0zaokqMz-44">
          <mxGeometry x="45" y="535" width="10" height="240" as="geometry" />
        </mxCell>
        <mxCell id="grcQj5qJuMnv0zaokqMz-46" value="" style="html=1;verticalAlign=bottom;endArrow=block;rounded=0;curved=1;exitX=1.06;exitY=0.856;exitDx=0;exitDy=0;exitPerimeter=0;startArrow=classic;startFill=1;" edge="1" parent="grcQj5qJuMnv0zaokqMz-44" source="grcQj5qJuMnv0zaokqMz-27">
          <mxGeometry width="80" relative="1" as="geometry">
            <mxPoint x="-180" y="308" as="sourcePoint" />
            <mxPoint x="40" y="312" as="targetPoint" />
          </mxGeometry>
        </mxCell>
        <mxCell id="grcQj5qJuMnv0zaokqMz-47" value="当作业运行成功，用户点击Mock数据按钮" style="text;html=1;strokeColor=none;fillColor=none;align=left;verticalAlign=middle;whiteSpace=wrap;rounded=0;" vertex="1" parent="1">
          <mxGeometry x="154" y="1648" width="108" height="51" as="geometry" />
        </mxCell>
        <mxCell id="grcQj5qJuMnv0zaokqMz-48" value="获取该作业的source列表" style="html=1;verticalAlign=bottom;endArrow=block;rounded=0;curved=1;exitX=1.049;exitY=0.286;exitDx=0;exitDy=0;exitPerimeter=0;" edge="1" parent="1">
          <mxGeometry width="80" relative="1" as="geometry">
            <mxPoint x="284.49" y="1717.1999999999998" as="sourcePoint" />
            <mxPoint x="490" y="1717" as="targetPoint" />
          </mxGeometry>
        </mxCell>
        <mxCell id="grcQj5qJuMnv0zaokqMz-49" value="source列表" style="verticalAlign=bottom;endArrow=block;shadow=0;strokeWidth=1;exitX=-0.033;exitY=0.537;exitDx=0;exitDy=0;exitPerimeter=0;" edge="1" parent="1">
          <mxGeometry relative="1" as="geometry">
            <mxPoint x="488.6700000000003" y="1758" as="sourcePoint" />
            <mxPoint x="284" y="1758.19" as="targetPoint" />
          </mxGeometry>
        </mxCell>
        <mxCell id="grcQj5qJuMnv0zaokqMz-50" value="添加数据" style="text;html=1;strokeColor=none;fillColor=none;align=left;verticalAlign=middle;whiteSpace=wrap;rounded=0;" vertex="1" parent="1">
          <mxGeometry x="165" y="1738" width="108" height="51" as="geometry" />
        </mxCell>
        <mxCell id="grcQj5qJuMnv0zaokqMz-51" value="数据文件Id+表名" style="html=1;verticalAlign=bottom;endArrow=block;rounded=0;curved=1;entryX=-0.119;entryY=0.294;entryDx=0;entryDy=0;entryPerimeter=0;exitX=1.049;exitY=0.286;exitDx=0;exitDy=0;exitPerimeter=0;" edge="1" parent="1">
          <mxGeometry width="80" relative="1" as="geometry">
            <mxPoint x="284" y="1792.002" as="sourcePoint" />
            <mxPoint x="487.3200000000004" y="1793.098" as="targetPoint" />
          </mxGeometry>
        </mxCell>
        <mxCell id="grcQj5qJuMnv0zaokqMz-52" value="获取该作业的source列表" style="html=1;verticalAlign=bottom;endArrow=block;rounded=0;curved=1;exitX=1.049;exitY=0.286;exitDx=0;exitDy=0;exitPerimeter=0;" edge="1" parent="1">
          <mxGeometry width="80" relative="1" as="geometry">
            <mxPoint x="502" y="1727.1819999999998" as="sourcePoint" />
            <mxPoint x="742" y="1728" as="targetPoint" />
          </mxGeometry>
        </mxCell>
        <mxCell id="grcQj5qJuMnv0zaokqMz-53" value="source列表" style="verticalAlign=bottom;endArrow=block;shadow=0;strokeWidth=1;" edge="1" parent="1">
          <mxGeometry relative="1" as="geometry">
            <mxPoint x="742" y="1748" as="sourcePoint" />
            <mxPoint x="502" y="1748" as="targetPoint" />
          </mxGeometry>
        </mxCell>
        <mxCell id="grcQj5qJuMnv0zaokqMz-54" value="数据文件Id+表名" style="html=1;verticalAlign=bottom;endArrow=block;rounded=0;curved=1;exitX=1.049;exitY=0.286;exitDx=0;exitDy=0;exitPerimeter=0;" edge="1" parent="1">
          <mxGeometry width="80" relative="1" as="geometry">
            <mxPoint x="502" y="1802.002" as="sourcePoint" />
            <mxPoint x="742" y="1802" as="targetPoint" />
          </mxGeometry>
        </mxCell>
        <mxCell id="grcQj5qJuMnv0zaokqMz-55" value="解析结果" style="verticalAlign=bottom;endArrow=block;shadow=0;strokeWidth=1;exitX=-0.033;exitY=0.537;exitDx=0;exitDy=0;exitPerimeter=0;" edge="1" parent="1">
          <mxGeometry relative="1" as="geometry">
            <mxPoint x="488.6700000000003" y="1828" as="sourcePoint" />
            <mxPoint x="284" y="1828.19" as="targetPoint" />
          </mxGeometry>
        </mxCell>
        <mxCell id="grcQj5qJuMnv0zaokqMz-56" value="解析结果" style="verticalAlign=bottom;endArrow=block;shadow=0;strokeWidth=1;" edge="1" parent="1">
          <mxGeometry relative="1" as="geometry">
            <mxPoint x="742" y="1822" as="sourcePoint" />
            <mxPoint x="502" y="1822" as="targetPoint" />
          </mxGeometry>
        </mxCell>
        <mxCell id="grcQj5qJuMnv0zaokqMz-57" value="" style="verticalAlign=bottom;startArrow=oval;endArrow=block;startSize=8;shadow=0;strokeWidth=1;" edge="1" parent="1">
          <mxGeometry relative="1" as="geometry">
            <mxPoint x="151" y="1848" as="sourcePoint" />
            <mxPoint x="273" y="1848" as="targetPoint" />
          </mxGeometry>
        </mxCell>
        <mxCell id="grcQj5qJuMnv0zaokqMz-58" value="&lt;span style=&quot;color: rgb(0 , 0 , 0) ; font-family: &amp;#34;helvetica&amp;#34; ; font-size: 12px ; font-style: normal ; font-weight: 400 ; letter-spacing: normal ; text-align: left ; text-indent: 0px ; text-transform: none ; word-spacing: 0px ; background-color: rgb(248 , 249 , 250) ; display: inline ; float: none&quot;&gt;点击发送数据&lt;/span&gt;" style="text;whiteSpace=wrap;html=1;" vertex="1" parent="1">
          <mxGeometry x="165" y="1818" width="100" height="30" as="geometry" />
        </mxCell>
        <mxCell id="grcQj5qJuMnv0zaokqMz-59" value="数据文件Id+表名" style="html=1;verticalAlign=bottom;endArrow=block;rounded=0;curved=1;exitX=1.049;exitY=0.286;exitDx=0;exitDy=0;exitPerimeter=0;" edge="1" parent="1">
          <mxGeometry width="80" relative="1" as="geometry">
            <mxPoint x="284" y="1868.002" as="sourcePoint" />
            <mxPoint x="487" y="1868" as="targetPoint" />
          </mxGeometry>
        </mxCell>
        <mxCell id="grcQj5qJuMnv0zaokqMz-60" value="" style="html=1;verticalAlign=bottom;endArrow=block;rounded=0;curved=1;" edge="1" parent="1">
          <mxGeometry width="80" relative="1" as="geometry">
            <mxPoint x="502" y="1878" as="sourcePoint" />
            <mxPoint x="742" y="1878" as="targetPoint" />
          </mxGeometry>
        </mxCell>
        <mxCell id="grcQj5qJuMnv0zaokqMz-61" value="&lt;span style=&quot;font-size: 11px ; background-color: rgb(255 , 255 , 255)&quot;&gt;数据文件Id+表名&lt;/span&gt;" style="text;html=1;align=center;verticalAlign=middle;resizable=0;points=[];autosize=1;strokeColor=none;fillColor=none;" vertex="1" parent="1">
          <mxGeometry x="562" y="1858" width="100" height="20" as="geometry" />
        </mxCell>
        <mxCell id="grcQj5qJuMnv0zaokqMz-62" value="往对应topic发送数据" style="text;html=1;align=center;verticalAlign=middle;resizable=0;points=[];autosize=1;strokeColor=none;fillColor=none;" vertex="1" parent="1">
          <mxGeometry x="792" y="1868" width="120" height="20" as="geometry" />
        </mxCell>
        <mxCell id="grcQj5qJuMnv0zaokqMz-63" value="返回发送成功的条数" style="verticalAlign=bottom;endArrow=block;shadow=0;strokeWidth=1;" edge="1" parent="1">
          <mxGeometry relative="1" as="geometry">
            <mxPoint x="747.25" y="1918" as="sourcePoint" />
            <mxPoint x="500.75" y="1918" as="targetPoint" />
          </mxGeometry>
        </mxCell>
        <mxCell id="grcQj5qJuMnv0zaokqMz-64" value="返回发送成功的条数" style="verticalAlign=bottom;endArrow=block;shadow=0;strokeWidth=1;" edge="1" parent="1">
          <mxGeometry relative="1" as="geometry">
            <mxPoint x="488.5" y="1928" as="sourcePoint" />
            <mxPoint x="282" y="1928" as="targetPoint" />
          </mxGeometry>
        </mxCell>
        <mxCell id="grcQj5qJuMnv0zaokqMz-65" value="文本+表名" style="html=1;verticalAlign=bottom;endArrow=block;rounded=0;curved=1;exitX=1.049;exitY=0.286;exitDx=0;exitDy=0;exitPerimeter=0;" edge="1" parent="1">
          <mxGeometry width="80" relative="1" as="geometry">
            <mxPoint x="502" y="2350.0019999999995" as="sourcePoint" />
            <mxPoint x="742" y="2350" as="targetPoint" />
          </mxGeometry>
        </mxCell>
        <mxCell id="grcQj5qJuMnv0zaokqMz-66" value="" style="points=[];perimeter=orthogonalPerimeter;rounded=0;shadow=0;strokeWidth=1;" vertex="1" parent="1">
          <mxGeometry x="744" y="2280" width="10" height="140" as="geometry" />
        </mxCell>
        <mxCell id="grcQj5qJuMnv0zaokqMz-67" value="解析结果" style="verticalAlign=bottom;endArrow=block;shadow=0;strokeWidth=1;" edge="1" parent="1">
          <mxGeometry relative="1" as="geometry">
            <mxPoint x="742" y="2370" as="sourcePoint" />
            <mxPoint x="502" y="2370" as="targetPoint" />
          </mxGeometry>
        </mxCell>
        <mxCell id="grcQj5qJuMnv0zaokqMz-68" value="解析结果" style="verticalAlign=bottom;endArrow=block;shadow=0;strokeWidth=1;exitX=-0.033;exitY=0.537;exitDx=0;exitDy=0;exitPerimeter=0;" edge="1" parent="1">
          <mxGeometry relative="1" as="geometry">
            <mxPoint x="488.6700000000003" y="2380" as="sourcePoint" />
            <mxPoint x="284" y="2380.1899999999996" as="targetPoint" />
          </mxGeometry>
        </mxCell>
        <mxCell id="grcQj5qJuMnv0zaokqMz-69" value="当作业运行成功，用户点击数据发送按钮，弹出数据发送框，选择输入文本，选择分隔符，点击解析预览" style="text;html=1;strokeColor=none;fillColor=none;align=left;verticalAlign=middle;whiteSpace=wrap;rounded=0;" vertex="1" parent="1">
          <mxGeometry x="144" y="2240" width="118" height="67" as="geometry" />
        </mxCell>
        <mxCell id="grcQj5qJuMnv0zaokqMz-70" value="" style="verticalAlign=bottom;startArrow=oval;endArrow=block;startSize=8;shadow=0;strokeWidth=1;" edge="1" parent="1">
          <mxGeometry relative="1" as="geometry">
            <mxPoint x="151" y="2404.41" as="sourcePoint" />
            <mxPoint x="273" y="2404.41" as="targetPoint" />
          </mxGeometry>
        </mxCell>
        <mxCell id="grcQj5qJuMnv0zaokqMz-71" value="&lt;span style=&quot;color: rgb(0 , 0 , 0) ; font-family: &amp;#34;helvetica&amp;#34; ; font-size: 12px ; font-style: normal ; font-weight: 400 ; letter-spacing: normal ; text-align: left ; text-indent: 0px ; text-transform: none ; word-spacing: 0px ; background-color: rgb(248 , 249 , 250) ; display: inline ; float: none&quot;&gt;点击发送数据&lt;/span&gt;" style="text;whiteSpace=wrap;html=1;" vertex="1" parent="1">
          <mxGeometry x="162" y="2370" width="100" height="30" as="geometry" />
        </mxCell>
        <mxCell id="grcQj5qJuMnv0zaokqMz-72" value="同上" style="html=1;verticalAlign=bottom;endArrow=block;rounded=0;curved=1;entryX=-0.119;entryY=0.294;entryDx=0;entryDy=0;entryPerimeter=0;exitX=1.049;exitY=0.286;exitDx=0;exitDy=0;exitPerimeter=0;startArrow=classic;startFill=1;" edge="1" parent="1">
          <mxGeometry width="80" relative="1" as="geometry">
            <mxPoint x="284" y="2420.0019999999995" as="sourcePoint" />
            <mxPoint x="487.3199999999997" y="2421.098" as="targetPoint" />
          </mxGeometry>
        </mxCell>
        <mxCell id="grcQj5qJuMnv0zaokqMz-73" value="前端" style="shape=umlLifeline;perimeter=lifelinePerimeter;container=1;collapsible=0;recursiveResize=0;rounded=0;shadow=0;strokeWidth=1;" vertex="1" parent="1">
          <mxGeometry x="229" y="2480" width="100" height="230" as="geometry" />
        </mxCell>
        <mxCell id="grcQj5qJuMnv0zaokqMz-74" value="" style="points=[];perimeter=orthogonalPerimeter;rounded=0;shadow=0;strokeWidth=1;" vertex="1" parent="grcQj5qJuMnv0zaokqMz-73">
          <mxGeometry x="45" y="70" width="10" height="110" as="geometry" />
        </mxCell>
        <mxCell id="grcQj5qJuMnv0zaokqMz-75" value="后端" style="shape=umlLifeline;perimeter=lifelinePerimeter;container=1;collapsible=0;recursiveResize=0;rounded=0;shadow=0;strokeWidth=1;" vertex="1" parent="1">
          <mxGeometry x="444" y="2480" width="100" height="230" as="geometry" />
        </mxCell>
        <mxCell id="grcQj5qJuMnv0zaokqMz-76" value="" style="points=[];perimeter=orthogonalPerimeter;rounded=0;shadow=0;strokeWidth=1;" vertex="1" parent="grcQj5qJuMnv0zaokqMz-75">
          <mxGeometry x="45" y="80" width="10" height="90" as="geometry" />
        </mxCell>
        <mxCell id="grcQj5qJuMnv0zaokqMz-77" value="引擎端" style="shape=umlLifeline;perimeter=lifelinePerimeter;container=1;collapsible=0;recursiveResize=0;rounded=0;shadow=0;strokeWidth=1;" vertex="1" parent="1">
          <mxGeometry x="699" y="2480" width="100" height="230" as="geometry" />
        </mxCell>
        <mxCell id="grcQj5qJuMnv0zaokqMz-78" value="" style="points=[];perimeter=orthogonalPerimeter;rounded=0;shadow=0;strokeWidth=1;" vertex="1" parent="grcQj5qJuMnv0zaokqMz-77">
          <mxGeometry x="45" y="80" width="10" height="90" as="geometry" />
        </mxCell>
        <mxCell id="grcQj5qJuMnv0zaokqMz-79" value="" style="verticalAlign=bottom;startArrow=oval;endArrow=block;startSize=8;shadow=0;strokeWidth=1;" edge="1" parent="1">
          <mxGeometry relative="1" as="geometry">
            <mxPoint x="152" y="2570" as="sourcePoint" />
            <mxPoint x="274" y="2570" as="targetPoint" />
          </mxGeometry>
        </mxCell>
        <mxCell id="grcQj5qJuMnv0zaokqMz-80" value="当作业运行成功" style="text;html=1;align=center;verticalAlign=middle;resizable=0;points=[];autosize=1;strokeColor=none;fillColor=none;" vertex="1" parent="1">
          <mxGeometry x="162" y="2550" width="100" height="20" as="geometry" />
        </mxCell>
        <mxCell id="grcQj5qJuMnv0zaokqMz-81" value="轮询结果，并切换到结果框" style="html=1;verticalAlign=bottom;endArrow=block;rounded=0;curved=1;entryX=-0.211;entryY=0.288;entryDx=0;entryDy=0;entryPerimeter=0;exitX=1.049;exitY=0.286;exitDx=0;exitDy=0;exitPerimeter=0;startArrow=classic;startFill=1;" edge="1" parent="1">
          <mxGeometry width="80" relative="1" as="geometry">
            <mxPoint x="284" y="2580.0019999999995" as="sourcePoint" />
            <mxPoint x="486.4000000000003" y="2580.276" as="targetPoint" />
          </mxGeometry>
        </mxCell>
        <mxCell id="grcQj5qJuMnv0zaokqMz-82" value="" style="html=1;verticalAlign=bottom;endArrow=block;rounded=0;curved=1;" edge="1" parent="1">
          <mxGeometry width="80" relative="1" as="geometry">
            <mxPoint x="502" y="2590" as="sourcePoint" />
            <mxPoint x="742" y="2590" as="targetPoint" />
          </mxGeometry>
        </mxCell>
        <mxCell id="grcQj5qJuMnv0zaokqMz-83" value="kafka" style="shape=umlLifeline;perimeter=lifelinePerimeter;container=1;collapsible=0;recursiveResize=0;rounded=0;shadow=0;strokeWidth=1;" vertex="1" parent="1">
          <mxGeometry x="942" y="2470" width="100" height="250" as="geometry" />
        </mxCell>
        <mxCell id="grcQj5qJuMnv0zaokqMz-84" value="" style="points=[];perimeter=orthogonalPerimeter;rounded=0;shadow=0;strokeWidth=1;" vertex="1" parent="grcQj5qJuMnv0zaokqMz-83">
          <mxGeometry x="45" y="70" width="10" height="110" as="geometry" />
        </mxCell>
        <mxCell id="grcQj5qJuMnv0zaokqMz-85" value="" style="html=1;verticalAlign=bottom;endArrow=block;rounded=0;curved=1;entryX=-0.228;entryY=0.543;entryDx=0;entryDy=0;entryPerimeter=0;startArrow=classic;startFill=1;" edge="1" parent="1" target="grcQj5qJuMnv0zaokqMz-84">
          <mxGeometry width="80" relative="1" as="geometry">
            <mxPoint x="754" y="2600" as="sourcePoint" />
            <mxPoint x="982" y="2600" as="targetPoint" />
          </mxGeometry>
        </mxCell>
        <mxCell id="grcQj5qJuMnv0zaokqMz-86" value="轮询结果" style="text;html=1;align=center;verticalAlign=middle;resizable=0;points=[];autosize=1;strokeColor=none;fillColor=none;" vertex="1" parent="1">
          <mxGeometry x="582" y="2570" width="60" height="20" as="geometry" />
        </mxCell>
        <mxCell id="grcQj5qJuMnv0zaokqMz-87" value="消费数据" style="text;html=1;align=center;verticalAlign=middle;resizable=0;points=[];autosize=1;strokeColor=none;fillColor=none;" vertex="1" parent="1">
          <mxGeometry x="842" y="2580" width="60" height="20" as="geometry" />
        </mxCell>
        <mxCell id="grcQj5qJuMnv0zaokqMz-88" value="返回数据" style="verticalAlign=bottom;endArrow=block;shadow=0;strokeWidth=1;" edge="1" parent="1">
          <mxGeometry relative="1" as="geometry">
            <mxPoint x="744" y="2620" as="sourcePoint" />
            <mxPoint x="502" y="2620" as="targetPoint" />
          </mxGeometry>
        </mxCell>
        <mxCell id="grcQj5qJuMnv0zaokqMz-89" value="返回数据，前端停止轮询" style="verticalAlign=bottom;endArrow=block;shadow=0;strokeWidth=1;exitX=-0.107;exitY=0.896;exitDx=0;exitDy=0;exitPerimeter=0;" edge="1" parent="1" source="grcQj5qJuMnv0zaokqMz-76">
          <mxGeometry relative="1" as="geometry">
            <mxPoint x="482" y="2640" as="sourcePoint" />
            <mxPoint x="284.0000000000002" y="2640" as="targetPoint" />
          </mxGeometry>
        </mxCell>
        <mxCell id="grcQj5qJuMnv0zaokqMz-180" value="" style="group" vertex="1" connectable="0" parent="1">
          <mxGeometry x="144" y="206" width="799.5" height="390" as="geometry" />
        </mxCell>
        <mxCell id="grcQj5qJuMnv0zaokqMz-181" value="前端" style="shape=umlLifeline;perimeter=lifelinePerimeter;container=1;collapsible=0;recursiveResize=0;rounded=0;shadow=0;strokeWidth=1;" vertex="1" parent="grcQj5qJuMnv0zaokqMz-180">
          <mxGeometry x="85" width="100" height="370" as="geometry" />
        </mxCell>
        <mxCell id="grcQj5qJuMnv0zaokqMz-182" value="后端" style="shape=umlLifeline;perimeter=lifelinePerimeter;container=1;collapsible=0;recursiveResize=0;rounded=0;shadow=0;strokeWidth=1;" vertex="1" parent="grcQj5qJuMnv0zaokqMz-180">
          <mxGeometry x="300" width="100" height="360" as="geometry" />
        </mxCell>
        <mxCell id="grcQj5qJuMnv0zaokqMz-183" value="引擎端" style="shape=umlLifeline;perimeter=lifelinePerimeter;container=1;collapsible=0;recursiveResize=0;rounded=0;shadow=0;strokeWidth=1;" vertex="1" parent="grcQj5qJuMnv0zaokqMz-180">
          <mxGeometry x="555" width="100" height="390" as="geometry" />
        </mxCell>
        <mxCell id="grcQj5qJuMnv0zaokqMz-184" value="" style="points=[];perimeter=orthogonalPerimeter;rounded=0;shadow=0;strokeWidth=1;" vertex="1" parent="grcQj5qJuMnv0zaokqMz-180">
          <mxGeometry x="130" y="87" width="10" height="80" as="geometry" />
        </mxCell>
        <mxCell id="grcQj5qJuMnv0zaokqMz-185" value="" style="verticalAlign=bottom;startArrow=oval;endArrow=block;startSize=8;shadow=0;strokeWidth=1;" edge="1" parent="grcQj5qJuMnv0zaokqMz-180">
          <mxGeometry relative="1" as="geometry">
            <mxPoint x="8" y="93" as="sourcePoint" />
            <mxPoint x="130" y="93" as="targetPoint" />
          </mxGeometry>
        </mxCell>
        <mxCell id="grcQj5qJuMnv0zaokqMz-186" value="" style="points=[];perimeter=orthogonalPerimeter;rounded=0;shadow=0;strokeWidth=1;" vertex="1" parent="grcQj5qJuMnv0zaokqMz-180">
          <mxGeometry x="130" y="180" width="10" height="167" as="geometry" />
        </mxCell>
        <mxCell id="grcQj5qJuMnv0zaokqMz-187" value="" style="points=[];perimeter=orthogonalPerimeter;rounded=0;shadow=0;strokeWidth=1;" vertex="1" parent="grcQj5qJuMnv0zaokqMz-180">
          <mxGeometry x="345" y="97" width="10" height="80" as="geometry" />
        </mxCell>
        <mxCell id="grcQj5qJuMnv0zaokqMz-188" value="" style="points=[];perimeter=orthogonalPerimeter;rounded=0;shadow=0;strokeWidth=1;" vertex="1" parent="grcQj5qJuMnv0zaokqMz-180">
          <mxGeometry x="345" y="187" width="10" height="160" as="geometry" />
        </mxCell>
        <mxCell id="grcQj5qJuMnv0zaokqMz-189" value="调用启动作业接口，返回作业提交结果" style="verticalAlign=bottom;endArrow=block;shadow=0;strokeWidth=1;startArrow=classic;startFill=1;" edge="1" parent="grcQj5qJuMnv0zaokqMz-180">
          <mxGeometry relative="1" as="geometry">
            <mxPoint x="355" y="268" as="sourcePoint" />
            <mxPoint x="599" y="268" as="targetPoint" />
          </mxGeometry>
        </mxCell>
        <mxCell id="grcQj5qJuMnv0zaokqMz-190" value="用户sql+其他配置参数" style="verticalAlign=bottom;endArrow=block;entryX=0;entryY=0;shadow=0;strokeWidth=1;" edge="1" parent="grcQj5qJuMnv0zaokqMz-180" source="grcQj5qJuMnv0zaokqMz-184" target="grcQj5qJuMnv0zaokqMz-187">
          <mxGeometry relative="1" as="geometry">
            <mxPoint x="250" y="97" as="sourcePoint" />
          </mxGeometry>
        </mxCell>
        <mxCell id="grcQj5qJuMnv0zaokqMz-191" value="表的解析信息" style="verticalAlign=bottom;endArrow=block;shadow=0;strokeWidth=1;" edge="1" parent="grcQj5qJuMnv0zaokqMz-180" target="grcQj5qJuMnv0zaokqMz-184">
          <mxGeometry relative="1" as="geometry">
            <mxPoint x="345" y="152.00000000000045" as="sourcePoint" />
            <mxPoint x="145" y="152" as="targetPoint" />
          </mxGeometry>
        </mxCell>
        <mxCell id="grcQj5qJuMnv0zaokqMz-192" value="" style="points=[];perimeter=orthogonalPerimeter;rounded=0;shadow=0;strokeWidth=1;" vertex="1" parent="grcQj5qJuMnv0zaokqMz-180">
          <mxGeometry x="600" y="97" width="10" height="50" as="geometry" />
        </mxCell>
        <mxCell id="grcQj5qJuMnv0zaokqMz-193" value="" style="points=[];perimeter=orthogonalPerimeter;rounded=0;shadow=0;strokeWidth=1;" vertex="1" parent="grcQj5qJuMnv0zaokqMz-180">
          <mxGeometry x="600" y="177" width="10" height="200" as="geometry" />
        </mxCell>
        <mxCell id="grcQj5qJuMnv0zaokqMz-194" value="返回最后的sql语句" style="verticalAlign=bottom;endArrow=block;shadow=0;strokeWidth=1;" edge="1" parent="grcQj5qJuMnv0zaokqMz-180">
          <mxGeometry relative="1" as="geometry">
            <mxPoint x="600" y="241" as="sourcePoint" />
            <mxPoint x="356" y="241" as="targetPoint" />
          </mxGeometry>
        </mxCell>
        <mxCell id="grcQj5qJuMnv0zaokqMz-195" value="用户sql+其他配置参数" style="verticalAlign=bottom;endArrow=block;shadow=0;strokeWidth=1;" edge="1" parent="grcQj5qJuMnv0zaokqMz-180" target="grcQj5qJuMnv0zaokqMz-192">
          <mxGeometry relative="1" as="geometry">
            <mxPoint x="355" y="109" as="sourcePoint" />
            <mxPoint x="598" y="109" as="targetPoint" />
          </mxGeometry>
        </mxCell>
        <mxCell id="grcQj5qJuMnv0zaokqMz-196" value="表的解析信息" style="verticalAlign=bottom;endArrow=block;shadow=0;strokeWidth=1;entryX=0.864;entryY=0.264;entryDx=0;entryDy=0;entryPerimeter=0;" edge="1" parent="grcQj5qJuMnv0zaokqMz-180">
          <mxGeometry relative="1" as="geometry">
            <mxPoint x="600" y="139.12000000000035" as="sourcePoint" />
            <mxPoint x="353.6400000000003" y="139.12000000000035" as="targetPoint" />
          </mxGeometry>
        </mxCell>
        <mxCell id="grcQj5qJuMnv0zaokqMz-197" value="用户sql+调试参数" style="verticalAlign=bottom;endArrow=block;entryX=0;entryY=0;shadow=0;strokeWidth=1;" edge="1" parent="grcQj5qJuMnv0zaokqMz-180">
          <mxGeometry relative="1" as="geometry">
            <mxPoint x="140" y="197.00000000000045" as="sourcePoint" />
            <mxPoint x="345" y="197.00000000000045" as="targetPoint" />
          </mxGeometry>
        </mxCell>
        <mxCell id="grcQj5qJuMnv0zaokqMz-198" value="" style="verticalAlign=bottom;startArrow=oval;endArrow=block;startSize=8;shadow=0;strokeWidth=1;" edge="1" parent="grcQj5qJuMnv0zaokqMz-180" target="grcQj5qJuMnv0zaokqMz-186">
          <mxGeometry relative="1" as="geometry">
            <mxPoint x="8" y="187.00000000000045" as="sourcePoint" />
            <mxPoint x="128" y="186" as="targetPoint" />
          </mxGeometry>
        </mxCell>
        <mxCell id="grcQj5qJuMnv0zaokqMz-199" value="解析sql，提取表名，view名&lt;br&gt;保存作业信息" style="text;html=1;align=center;verticalAlign=middle;resizable=0;points=[];autosize=1;strokeColor=none;fillColor=none;" vertex="1" parent="grcQj5qJuMnv0zaokqMz-180">
          <mxGeometry x="610" y="102" width="160" height="30" as="geometry" />
        </mxCell>
        <mxCell id="grcQj5qJuMnv0zaokqMz-200" value="写好sql, 点击调试运行" style="text;html=1;align=center;verticalAlign=middle;resizable=0;points=[];autosize=1;strokeColor=none;fillColor=none;" vertex="1" parent="grcQj5qJuMnv0zaokqMz-180">
          <mxGeometry y="67" width="130" height="20" as="geometry" />
        </mxCell>
        <mxCell id="grcQj5qJuMnv0zaokqMz-201" value="用户sql+调试参数" style="verticalAlign=bottom;endArrow=block;shadow=0;strokeWidth=1;" edge="1" parent="grcQj5qJuMnv0zaokqMz-180">
          <mxGeometry relative="1" as="geometry">
            <mxPoint x="356" y="204" as="sourcePoint" />
            <mxPoint x="598.0000000000005" y="204" as="targetPoint" />
          </mxGeometry>
        </mxCell>
        <mxCell id="grcQj5qJuMnv0zaokqMz-202" value="&lt;span style=&quot;color: rgb(0 , 0 , 0) ; font-family: &amp;quot;helvetica&amp;quot; ; font-size: 12px ; font-style: normal ; font-weight: 400 ; letter-spacing: normal ; text-align: left ; text-indent: 0px ; text-transform: none ; word-spacing: 0px ; background-color: rgb(248 , 249 , 250) ; display: inline ; float: none&quot;&gt;解析sql，将source和sink的ddl替换掉，使用调试用的kafka topic，生成最终的sql语句&lt;/span&gt;" style="text;whiteSpace=wrap;html=1;" vertex="1" parent="grcQj5qJuMnv0zaokqMz-180">
          <mxGeometry x="616.5" y="230" width="183" height="50" as="geometry" />
        </mxCell>
        <mxCell id="grcQj5qJuMnv0zaokqMz-203" value="&lt;span style=&quot;color: rgb(0 , 0 , 0) ; font-family: &amp;quot;helvetica&amp;quot; ; font-size: 12px ; font-style: normal ; font-weight: 400 ; letter-spacing: normal ; text-align: center ; text-indent: 0px ; text-transform: none ; word-spacing: 0px ; background-color: rgb(248 , 249 , 250) ; display: inline ; float: none&quot;&gt;补充调试参数信息，&lt;br&gt;点击确定&lt;br&gt;&lt;/span&gt;" style="text;whiteSpace=wrap;html=1;" vertex="1" parent="grcQj5qJuMnv0zaokqMz-180">
          <mxGeometry x="10" y="147" width="130" height="30" as="geometry" />
        </mxCell>
        <mxCell id="grcQj5qJuMnv0zaokqMz-204" value="" style="endArrow=classic;startArrow=classic;html=1;rounded=0;curved=1;entryX=-0.058;entryY=0.915;entryDx=0;entryDy=0;entryPerimeter=0;exitX=1.316;exitY=0.92;exitDx=0;exitDy=0;exitPerimeter=0;" edge="1" parent="grcQj5qJuMnv0zaokqMz-180" source="grcQj5qJuMnv0zaokqMz-186" target="grcQj5qJuMnv0zaokqMz-188">
          <mxGeometry width="50" height="50" relative="1" as="geometry">
            <mxPoint x="178" y="347" as="sourcePoint" />
            <mxPoint x="228" y="297" as="targetPoint" />
          </mxGeometry>
        </mxCell>
        <mxCell id="grcQj5qJuMnv0zaokqMz-205" value="轮询作业状态及运行日志" style="text;html=1;align=center;verticalAlign=middle;resizable=0;points=[];autosize=1;strokeColor=none;fillColor=none;" vertex="1" parent="grcQj5qJuMnv0zaokqMz-180">
          <mxGeometry x="163" y="307" width="150" height="20" as="geometry" />
        </mxCell>
        <mxCell id="grcQj5qJuMnv0zaokqMz-206" value="" style="endArrow=classic;startArrow=classic;html=1;rounded=0;curved=1;exitX=1.316;exitY=0.92;exitDx=0;exitDy=0;exitPerimeter=0;" edge="1" parent="grcQj5qJuMnv0zaokqMz-180">
          <mxGeometry width="50" height="50" relative="1" as="geometry">
            <mxPoint x="355" y="335.09000000000015" as="sourcePoint" />
            <mxPoint x="600" y="335" as="targetPoint" />
          </mxGeometry>
        </mxCell>
        <mxCell id="grcQj5qJuMnv0zaokqMz-207" value="轮询作业状态及运行日志" style="text;html=1;align=center;verticalAlign=middle;resizable=0;points=[];autosize=1;strokeColor=none;fillColor=none;" vertex="1" parent="grcQj5qJuMnv0zaokqMz-180">
          <mxGeometry x="403" y="310" width="150" height="20" as="geometry" />
        </mxCell>
      </root>
    </mxGraphModel>
  </diagram>
</mxfile>
